<svg xmlns="http://www.w3.org/2000/svg" width="720" height="720" viewBox="0 0 720 720"><path d="M586.1 134.4c-0.3 0.1-0.6 0.1-0.9 0.3 -5 2.9-10.5 4.1-16.1 5.3 -3 0.7-6.1 1.1-9.2 1.6 -1.8 0.3-0.9 2.9-2.7 3.2 -1.1 0.2-2.4 2.5-3.4 2.9 0.3-0.4-3-3.1-3.2-3.8 -0.5 2.6 0.1 5.2-2.1 6.7 -4.3 2.9-6.8 6.6-11.1 9.5 -3.6 2.4-8 5-11.4 7.6 -1 0.8-5.5 0.4-5.4 1.5 0.2 1.9 2.2 2.2 3.9 1.8 1.8-0.4 3.6-1 5.2-1.8 3.9-2 7.9-3.1 12.4-2.9 1.7 0.1 3.4-0.5 5.1-0.9 3.3-0.9 6.5-2 9.8-3 0.9-0.3 1.8-0.6 2.6-1 2.2-1.2 2.5-3.7 0.9-5.5 -0.6-0.6-1.3-1.2-1.6-1.9 -0.4-0.8-0.8-2.1-0.5-2.5 0.7-0.6 2-1.1 2.9-0.9 2.2 0.6 4.3 1.5 6.4 2.5 4.8 2.1 8.3 1.6 12-1.9 1.3-1.2 2.7-2.2 3.7-3.6 2.3-2.9 4.5-5.8 6.4-9 0.5-0.9 0.3-2.5-0.2-3.5C589 133.8 587.4 133.9 586.1 134.4"></path><path d="M517.1 319.6c-5.2-2.1-10.2-4.5-15.3-6.8 -2-0.9-4.1-1.8-6.2-2.6 -2.3-0.9-4.7-0.8-6.9 0.4 -1.6 0.9-3.3 1.8-4.9 2.7 -2 1.1-3.2 2.6-3.6 4.7 -0.7 3.6-1.1 7.3-2.3 10.8 -3.3 10.1-6.9 20.2-10.4 30.3 -1.4 4.1-3 8.2-4.6 12.2 -0.9 2.3-1.8 4.9-3.5 6.6 -2.5 2.4-4.5 4.9-6.1 7.8 -4.3 7.7-12.3 8.8-19.6 5.5 -4-1.9-7.6-4.5-11.4-6.9 -1.4-0.9-2.7-1.8-3.8-2.9 -2-1.9-2-4 0.1-5.9 0.8-0.8 1.9-1.3 2.9-2 3-2.1 5.8-4.4 8.9-6.3 4.6-2.9 9.1-5.9 12.9-9.9 1.8-1.9 3.4-3.9 5.2-5.6 6.6-6.2 12.2-13.1 16.8-20.8 1.4-2.4 3.1-4.6 4.3-7.1 1.2-2.6-0.6-4.6-3.6-4.4 -2.8 0.2-4.4 2-6.1 3.8 -2.3 2.4-4.7 4.7-7.2 7 -1.2 1.1-2.5 1.9-3.8 2.9 -0.8 0.6-1.5 1.2-2.2 1.9 -0.1-0.1-0.2-0.2-0.3-0.2 -0.2 0-0.3 0-0.5 0 -0.1 0-0.2 0-0.2 0 -0.1 0-0.2-0.1-0.3-0.1 0-0.1-0.1-0.2-0.1-0.3 0-0.1 0-0.2 0-0.2 0-0.2 0-0.3 0-0.5 -0.1-0.1-0.2-0.2-0.3-0.3 0.4-0.6 0.8-1.2 1.3-1.7 1.7-1.7 2.2-3.4 1.1-5.7 -0.5-1-0.5-2.5 0-3.5 1.8-3.4 1.7-3.7-2.1-4.9 -0.1 0-0.1-0.1-0.2-0.1 -2.2-0.7-2.6-2.3-1.1-4 0.5-0.5 1.1-1 1.5-1.6 0.7-0.9 0.7-1.6-0.7-1.9 -1.3-0.3-2.6-0.9-3.9-1.3 -3.8-1.2-6.9-0.1-8.9 3.2 -1 1.6-1.8 3.5-3 4.9 -2.5 3-5.2 6-8.1 8.7 -4.2 4-8.4 7.9-12.9 11.5 -5.1 4.1-10.5 7.8-15.7 11.7 -2 1.5-2.4 2.9-1.6 5 0.4 1 0.7 2.1 1.1 3.2 -0.1 0.1-0.2 0.2-0.3 0.3 0 0.1-0.1 0.2-0.1 0.3 -0.1 0.1-0.3 0.2-0.4 0.4v0c-0.1 0.1-0.3 0.2-0.4 0.4h0c-0.1 0.1-0.3 0.2-0.4 0.4 -1.7 0-3.2-0.8-3.4-2.3 -0.5-3.3-2.7-5.8-4.4-8.5 -2.1-3.2-2.6-7.2-5.6-10 -1.9-1.8-3.4-3.8-5-5.8 -3.6-4.5-7.2-9-10.7-13.6 -3.6-4.6-7.3-9.2-10.7-14 -2.1-2.9-3.6-6.2-5.6-9.3 -1.9-3.1-3.8-6.2-7-8.3 -1.1-0.8-2.4-1.7-2.9-2.9 -2.2-5.3-6.1-9.5-9.2-14.2 -2.1-3.2-4.5-6.1-6.5-9.4 -4.4-7.4-8.9-14.7-14.4-21.4 -3.6-4.3-6.4-9.1-8.3-14.3 0.1-0.1 0.2-0.2 0.3-0.3 0-0.2 0-0.3 0-0.5 0-0.1 0-0.2 0-0.2 0-0.2 0-0.3 0-0.5 0-0.1 0-0.2 0-0.2 0-0.2 0-0.3 0-0.5 0-0.1 0-0.2 0-0.2l0-0.5c0-0.1 0-0.2 0-0.2 0-0.2 0-0.3 0-0.5 0-0.1 0-0.2 0-0.2 -0.1-0.2-0.2-0.4-0.3-0.5 -0.1-0.1-0.3-0.2-0.4-0.4 -0.2-0.1-0.4-0.2-0.6-0.3 -0.1 0-0.2 0-0.3 0 -0.2 0-0.3 0-0.5 0 -0.1 0-0.2 0-0.3 0 -0.2 0-0.3 0-0.5 0 -0.1 0.1-0.2 0.2-0.4 0.3 -0.1 0-0.1 0-0.2 0 -1.4-1.7-2.1-3.6-2.3-5.8 0.1-0.1 0.2-0.2 0.3-0.3 0-0.1 0.1-0.2 0.1-0.3 0.1-0.2 0.2-0.3 0.3-0.5 0-0.1 0-0.2 0-0.2 -0.1-0.2-0.2-0.4-0.3-0.5l-0.4-0.4c-0.1-0.1-0.3-0.2-0.4-0.4 -0.1-0.1-0.3-0.2-0.4-0.4l-0.6-0.3 -0.2 0c-1.3-1.8-2.8-3.5-3.9-5.3 -2.6-4.6-5-9.4-7.6-14 -3.5-6-7-11.9-10.6-17.9 -4.1-6.7-8.2-13.5-12.4-20.1 -2-3.2-3.9-6.4-4.8-10 -0.5-1.9-1-3.8-2-5.5 -3.1-4.9-6.2-9.8-9.6-14.5 -6.2-8.6-12.3-17.4-19.9-25 -4.8-4.9-9.3-10.1-14.1-14.9 -1.8-1.8-4-3.2-6.2-4.5 -2.5-1.6-5.2-2.9-7.8-4.4 0.1-0.1 0.2-0.2 0.2-0.3 -0.1-0.1-0.2-0.3-0.3-0.4 -0.1-0.1-0.2-0.3-0.3-0.4 -0.1-0.1-0.2-0.3-0.4-0.4 -0.2-0.1-0.3-0.2-0.5-0.3 -0.8-0.8-1.5-1.8-2.5-2.3 -2.5-1.4-5.2-2.6-7.9-3.7 -4-1.6-8-3.4-12.2-4.6 -3-0.9-6.2-1-9.4-1.5h-5.7c-0.4 0.1-0.8 0.2-1.2 0.3 -3.1 0.4-6.4 0.4-9.2 1.4 -7.6 2.8-15.3 5.6-22.6 9.3 -10.9 5.5-21.1 12.1-29.6 20.7 -5 5.1-9 10.8-11.9 17.1 -0.8 1.8-1.5 4-1.2 5.8 0.6 3.8 5.3 6.2 9.4 5.4 3.2-0.6 6-2 8.7-3.7 6.5-3.9 13.2-7.5 19.5-11.8 5-3.3 10.4-5.4 16.2-7 3.8-1 7.7-1.4 11.6-1.9 2.8-0.3 5.8-0.7 8.4-0.1 10.8 2.4 19.6 7.9 26.5 16.1 0.3 0.4 1 0.6 1.5 0.8l0.4 0.4c0.1-0.1 0.2-0.2 0.2-0.2 -0.1 0.1-0.2 0.2-0.2 0.2 0.1 0.1 0.3 0.2 0.4 0.4 0 0 0.1-0.1 0.1-0.1 0 0-0.1 0.1-0.1 0.1 0.1 0.1 0.3 0.2 0.4 0.4 0.1 0.1 0.3 0.2 0.4 0.4h0c0.1 0.1 0.3 0.2 0.4 0.4 0.1 0.1 0.2 0.2 0.4 0.4 0.1-0.1 0.2-0.1 0.3-0.2 -0.1 0.1-0.2 0.2-0.3 0.2 0 0.1 0.1 0.2 0.1 0.3 0.1 0.3 0.3 0.6 0.4 0.9 0 0.2-0.1 0.5 0.1 0.7 2.7 4.3 5.5 8.6 8.2 12.9 1.2 1.8 2.4 3.6 3.4 5.5 1.5 2.9 3.2 5.7 6.2 7.4l0 0c0 0.2 0 0.4 0 0.6l0 0.2c0.1 0.2 0.2 0.4 0.3 0.6 0 0.1 0.1 0.2 0.1 0.4 0.1 0.1 0.1 0.2 0.2 0.2 -0.3 2.3 1.3 3.7 2.8 5.1 0.1 0 0.2 0 0.3 0 0.1 0.1 0.3 0.2 0.4 0.4 0.1-0.1 0.2-0.2 0.2-0.2 -0.1 0.1-0.2 0.2-0.2 0.2 0.2 0.1 0.4 0.2 0.6 0.3l0.1 0 0.1 0c0.2 0 0.3 0 0.5 0l0.1 0 0.1 0c0.2 0 0.3 0 0.5 0l0.1 0h0.1c0.1 0 0.2 0.1 0.3 0.1v0c0.2 0.1 0.3 0.2 0.5 0.3 1.1 1.4 2.4 2.7 3.3 4.2 1.4 2.4 2.6 4.9 3.8 7.4 0.2 0.5 0 1.1 0 1.7 -0.5-0.1-1-0.1-1.5-0.2 -0.4 0-1.1-0.2-1.2 0 -0.3 0.3-0.3 0.9-0.3 1.3 0 0.5 0.3 0.9 0.5 1.3 6 11.4 12.1 22.9 18.2 34.3 0.4 0.8 1.7 1.3 2.5 1.8 0.7 0.5 1.7 0.7 2.1 1.3 2.4 4.3 4.9 8.5 7 13 1.2 2.6 1.6 5.6 2.7 8.3 1 2.4 2 5.1 3.9 6.8 2.1 2 3.4 4 3.7 6.7 0.3 2.2 0.9 4.1 3.1 5.2 0.3 0.2 0.4 0.6 0.6 1 1.8 3.2 3.3 6.6 5.4 9.6 2.8 4.2 5.5 8.5 9.9 11.5 0.2 0.2 0.4 0.4 0.6 0.7 1.8 1.8 1.7 4.3 2.1 6.5 0.5 2.8 1.1 5.5 4.3 6.8l0.4 0v0c0.1 0.1 0.2 0.2 0.4 0.3 0 0.1 0 0.3 0 0.4 0.5 0.5 1 1.1 1.5 1.6 0.1 0.2 0.3 0.3 0.4 0.5l0 0c0 0.1-0.1 0.2-0.1 0.3 -0.1 1.8-0.2 3.7-0.4 5.5 -0.1 1.7 0.8 2.4 2.3 3.2 1.9 1 4.1 2.3 5.1 4 2.2 3.5 3.7 7.5 5.6 11.2 1.4 2.6 3 5.2 4.8 7.6 1.6 2.1 3.6 4 5.1 6.1 3.4 4.6 6.6 9.2 9.9 13.9 2.5 3.5 5 7.1 7.5 10.6 0.7 1 1.4 1.9 2.1 2.8 2.6 3.3 5.2 6.5 7.7 9.8 2.1 2.7 4 5.5 6 8.2 1.2 1.6 2.4 3.2 3.8 4.6 1.5 1.6 3.2 2.9 4.6 4.5 2.8 3.1 5.4 6.2 8 9.4 2.2 2.6 4.2 5.3 6.3 7.9 -0.1 0.1-0.2 0.2-0.3 0.3 0 0.2 0 0.3 0 0.5 0 0.1 0 0.2 0 0.2 0.1 0.2 0.2 0.4 0.3 0.5 0.1-0.1 0.2-0.2 0.3-0.2 -0.1 0.1-0.2 0.2-0.3 0.2 0 0.1 0.1 0.2 0.1 0.3 0 0.1 0 0.2 0 0.2 0.1 0.2 0.2 0.4 0.3 0.5 0.1 0.1 0.2 0.2 0.4 0.4 0 0.1 0 0.2 0.1 0.3 0.8 1.2 1.5 2.7 2.5 3.6 6.2 5.7 12.5 11.2 18.9 16.8 0.9 0.8 2 1.3 2.9 1.9 0.1 0 0.2 0 0.3 0 0.1-0.1 0.2-0.2 0.3-0.3 -0.1 0.1-0.2 0.2-0.3 0.3 0.1 0.1 0.3 0.2 0.4 0.3 0.2 0.1 0.4 0.2 0.6 0.3l0.1 0c0.1 0 0.3 0.1 0.4 0.1 0.1 0.5 0.1 1.2 0.5 1.5 4.1 3.6 8.1 7.4 13.7 8.9 3.5 0.9 6.3 3.1 9.2 5 1.5 1 2.8 2.2 3.8 3.6 1.4 1.8 2.8 2 4.1 0.2 0.9-1.3 1.9-1.5 3.2-0.8 1.4 0.7 2.7 1.3 4 2 2.9 1.5 5.8 3.1 8.8 4.7 2.2 1.1 3.8 3.2 6.6 3.4 3.3 0.3 6.5 1.1 9.7 1.7h1.9c0.9-0.1 1.9-0.2 2.8-0.3 2.3-0.3 4.3-0.3 5.3-3.2 0.9-2.5 3.5-4.4 6.4-5.3 1.6-0.5 3.7-0.4 4.9-1.3 3.1-2.3 6.2-4.7 8.5-7.6 7.9-9.6 14.9-19.7 20.8-30.5 6.8-12.6 11.8-25.7 15.8-39.2 3.1-10.6 5.3-21.5 7.6-32.4C522.8 326.1 522 321.6 517.1 319.6"></path><path d="M356.8 406.1c-1.6-1-2.9-2-3.7-3.8 -1.7-4.1-5.9-4.9-9.7-5.8 -1.2-0.3-2.9 1.1-4.4 1.6 -2.3 0.8-4.7 1.5-7.1 2.3 -0.1 0-0.2 0-0.3 0 -0.2-0.1-0.4-0.2-0.6-0.2 -0.1 0-0.2 0-0.3 0 0-0.1 0-0.2 0-0.2 0-0.2 0-0.3 0-0.5 0-0.1 0-0.2 0-0.2l0-0.5c0-0.1 0-0.2 0-0.2 0-0.1 0-0.3 0.1-0.4 0.5-0.4 1-0.9 1.6-1.3 1.5-1 2.9-2 2.8-4.1 0-0.8 1.2-1.9 2.2-2.4 2.1-1.1 4.3-1.9 6.5-2.9 1.3-0.6 1.9-1.7 1.3-2.7 -0.3-0.5-1.9-0.7-2.8-0.4 -3.1 0.8-3.6 0.7-5.2-2 -1.2-2-2.1-2.4-4.5-1.6 -2.3 0.7-4.5 1.7-6.8 2.2 -7.5 1.8-15.1 3.4-22.6 5 -8 1.7-16.2 2.5-24.4 1.8 -4.8-0.4-9.5-0.6-14.3-1.1 -6.6-0.8-13.1-1.7-19.6-2.9 -10.3-1.9-20.6-4.1-30.3-8.2 -5.8-2.5-11.8-4.7-17.4-7.6 -5-2.6-9.4-6.1-15-7.5 -0.3-0.1-0.6-0.3-0.8-0.4 -4.6-2.8-9.4-5.5-13.9-8.6 -5.5-3.7-10.8-7.6-16.2-11.4 -2.4-1.7-4.6-3.6-7.7-4.5 -3.9-1.2-7.1-3.5-7.9-7.8 -0.2-1.4-1-2-2.3-2.5 -1.6-0.7-3.4-1.5-4.6-2.6 -2.5-2.3-4.8-4.9-7.1-7.4 -2.1-2.3-4.1-4.5-5.3-7.4 -0.6-1.3-1.1-2.6-2-3.7 -3.8-4.5-8-8.7-11.6-13.4 -4-5.1-7.6-10.6-11.3-16 -2.1-3-3.8-6.2-5.9-9.2 -1.6-2.4-3.9-4.3-4.7-7.2 -0.6-2.1-1.1-4.3-2.3-6.1 -4-6-6.9-12.5-9.9-18.9 -2.8-6.1-5.8-12.3-8.2-18.5 -5.9-15.1-10-30.8-13.7-46.5 -0.9-4-2.1-8-4.5-11.4 -2.8-4-6.1-4-8.9 0 -3.9 5.5-4.9 11.7-5.4 18.1 -0.2 2.4-0.4 4.7-0.6 7.1v8.3c0.1 0.7 0.2 1.4 0.3 2.1 0.3 2.4 0 4.9 0.9 7 1.2 2.7 1.1 5.4 1.2 8.2 0 1.5 0.6 3 1 4.4 0.4 1.6 1.1 3.1 1.4 4.8 0.8 4.2 1.1 8.4 2.2 12.5 1.9 6.7 4.3 13.3 6.7 19.9 2.9 7.8 5.8 15.7 9 23.4 1.9 4.7 4.4 9.2 6.8 13.7 3.9 7.6 7.6 15.3 12 22.6 3.6 6 7.9 11.6 12 17.3 2.5 3.5 5 7 7.9 10.2 4.2 4.9 8.6 9.6 13.1 14.3 4.3 4.5 8.7 8.8 13.2 13.1 0.7 0.7 2 0.9 3 1.4 0.1 0.1 0.3 0.2 0.4 0.4h0c0.2 0.1 0.4 0.2 0.6 0.3 0.1 0 0.2 0 0.3 0 0.1 0 0.2 0 0.4 0 0.1 0.1 0.3 0.2 0.4 0.3l0.2 0c0.5 0 1 0 1.5 0l0.2 0c0.1 0 0.3 0 0.4 0 0.1 0 0.2 0 0.3 0 0.3 0.2 0.7 0.3 1 0.5 4.2 3.4 8.4 6.9 11.5 11.3 0.5 0.7 1.2 1.4 1.9 1.9 1.9 1.5 3.8 2.9 5.8 4.2 4.5 3 8.8 6.5 13.8 8.6 7.7 3.3 14.7 7.7 22.2 11.4 3.9 1.9 7.6 4.4 12.5 3.5 0.6-0.1 1.3 0.1 1.8 0.3 3.2 1.1 6.4 2.3 9.6 3.4 7.6 2.7 15.4 4.6 22.8 7.9 4 1.8 8.8 2.2 13.3 2.9 6.8 1.1 13.7 2.2 20.6 3 5.4 0.6 10.8 0.7 16.2 0.7 14.2 0 28.5 0.7 42.5-2.5 5.8-1.3 11.7-2.7 17.4-4.5 4.3-1.3 8.3-3.4 12.4-5.2 3.1-1.4 6.3-2.6 9.3-4.3C359.4 409.6 359.1 407.5 356.8 406.1"></path><path d="M691.8 132.8c-0.4-3.6-1.4-7.1-3.7-10.2 -2.9-3.9-5.8-7.9-8.9-11.7 -3.4-4.2-7-8.3-10.6-12.3 -2.4-2.7-5.4-4.7-9-5.7 -5-1.5-10-3-15.1-4.2 -5.2-1.2-10.2 0-15.1 1.8 -4.7 1.7-9.3 3.6-13.9 5.4 -3.8 1.6-7.8 3-11.4 5 -6.5 3.6-11.1 9.1-15.1 15 -2.9 4.3-6.6 7.5-11.2 10.1 -2.9 1.6-5.6 3.7-7.8 6.1 -2.2 2.3-4.6 3.9-7.6 5 -3.5 1.4-8.6 4.9-12 6.5 -0.9 0.5-1.9 0.9-2.6 1.5 -1.8 1.5-3.4 3.3-5.4 4.6 -5.7 3.8-11.4 7.5-17.3 11 -3.2 1.9-6.6 3.4-10.1 4.7 -6.5 2.4-10.9 6.4-12.1 13.1 -0.6 3.2-1.2 6.5-2.5 9.4 -1.3 3-1.5 5.7-0.2 8.5 1 2.3 0.7 4.5-0.3 6.7 -0.8 1.9-1.4 3.8-2.1 5.7 -3.9 11.5-6.9 23.2-11.9 34.4 -4.1 9.2-9.6 17.5-15 25.9 -3.5 5.4-7.9 10.3-12.2 15.2 -3.3 3.8-7.1 7.3-10.6 10.9 -1.2 1.3-2.7 2.3-3.8 3.7 -1.5 1.8-0.8 3.5 1.5 4.3 0.6 0.2 1.3 0.3 2 0.4 3.4 0.7 7.1 0.5 9.8 3.1 1.3 1.2 2.4 2.4 3.7 3.6 1.8 1.7 4 1.2 4.9-1 0.3-0.7 0.4-1.5 0.5-2.3 0.5-4.7 2.9-8 7.3-10.3 5.4-2.8 10.7-5.7 15.7-9.2 8.6-6.1 15-13.6 18.7-23.2 3.1-8.2 4.2-16.7 4.7-25.3 0.1-1.4 0.2-2.7 0.6-4 0.2-0.6 0.8-1.1 1.3-1.6 0.5 0.6 1 1.1 1.3 1.7 0.4 0.8 0.5 1.7 0.8 2.5 0.7 1.6 2.4 2 3.6 0.7 1.1-1.2 2.1-2.7 2.6-4.2 2.4-7.6 4.7-15.2 3.5-23.2 -0.7-4.2-1.3-8.5-4.1-12.1 -3.4-4.4-2.8-6.3 0.1-10.7 1.7-2.6 3.8-2.7 6.1-1 4.1 3.1 6.1 7.4 6.4 12.2 0.1 2.2-0.3 4.5-0.3 6.8 0.1 7.6-1.1 15-3.8 22.2 -4.1 11-8.3 22-13.8 32.5 -1.6 3-3.6 5.8-4.8 8.9 -2.2 6.1-5.7 11.2-10.9 15.5 -6.4 5.4-13 10.5-20.9 13.9 -3.7 1.6-6.7 4.2-8.5 7.8 -0.2 0.4-0.3 0.9-0.5 1.3 -0.6 1.5-0.6 3 1 3.8 1.6 0.8 2.9-0.1 3.9-1.3 2.4-3 5.4-4.7 9.4-4.2 6.8 0.9 13.6 1.8 20.4 2.9 4.1 0.7 8.3 1.5 11.8 4 2.1 1.5 3.8 3.6 5.7 5.5 1.6 1.5 2.8 1.7 4.6 0.5 4.3-2.9 6.8-7 8.1-11.9 1-3.7 1.9-7.5 3.3-11.1 1.7-4.5 3.8-8.8 5.6-13.2 2-4.8 3.4-9.7 5.8-14.3 4-7.8 8.4-15.4 13.9-22.5 1.7-2.2 3.4-4.6 5.4-6.6 0.6-0.7 2.2-0.8 3.2-0.7 0.6 0.1 1.1 1.3 1.4 2.1 0.3 0.8 0.3 1.8 0.5 2.6 0.9 4 3.3 5.7 7.6 3 5.5-3.6 10.2-8 13.7-13.4 3.3-5.1 2.7-9.6-2.5-13.9 -3.1-2.5-3.8-5.2-2-8.7 0.5-1 1.1-1.9 1.5-2.9 0.6-1.3 1.1-2.7-0.2-3.8 -1.4-1.1-2.8-0.7-4.2 0.1 -2.8 1.6-4.3 4.2-5.5 7 -1.1 2.6-2.2 5.2-3.5 7.7 -0.7 1.3-1.9 2.3-3.6 2.1 -1.6-0.2-2.3-1.4-2.6-2.7 -0.7-3-0.7-6.1 0.6-8.9 2.1-4.6 0.9-8.7-1.8-12.6 -1.4-2.1-3.2-2.1-4.7 0 -0.6 0.9-1.1 1.9-1.9 2.6 -0.6 0.5-1.8 0.9-2.5 0.7 -0.5-0.1-1-1.3-0.9-2.1 0-1 0.4-2 0.9-2.9 1.3-2.4 2.8-4.7 4.3-6.9 1.3-2 3-3.3 5.7-3.2 3.2 0 5.3-1.7 6-4.5 1.2-4.8 2.3-9.4-0.8-14.2 -3.3-5.2-1.1-11.8 4.1-15.5 5.5-3.9 11.5-5.9 18.4-5.6 5.5 0.2 8.5 2.3 9.8 7.3 0.3 1.1 0.6 2.3 1.2 3.4 0.8 1.6 2.7 1.7 3.9 0.3 1.1-1.4 1.3-2.9 0.8-4.5 -0.9-3.1-1.7-6.2-2.5-9.3 -1.9-7.1-4.3-14.1-3.2-21.7 0.5-3.8 2.2-6.6 5.5-8.4 3.3-1.8 6.2-3.7 8.3-6.8 1.1-1.7 3-2.9 5.2-3 3.3-0.1 6.7 0 10 0.5 5.1 0.7 10.2 1.9 15.3 2.7 4.8 0.8 9.4 1.8 12.5 5.8 0.7 0.8 1.8 1.3 2.6 2.1 1.2 1.2 2.7 2.4 3.2 3.8 1.1 3.3 2.1 6.8 2.2 10.2 0.2 6.8-0.1 13.6-0.3 20.4 -0.1 2.6-0.3 5.2-1 7.8 -1 4.2-2.2 8.4-3.6 12.5 -1.6 4.9-4 9.4-8.6 12.5 -7 4.6-14.5 7.6-23.2 7.1 -4.9-0.3-9.6-1.5-14.2-3 -4.8-1.6-9.5-2.2-14.6-1 -2.6 0.6-5.3 0.6-8 0.7 -2.1 0.1-3.9-1.3-4.4-2.8 -1-3.2 1.8-6.7 5.3-6.7 1.4 0 3 0.2 3.7-1.2 1.3-2.9 2.6-5.9 3.6-8.9 0.4-1.2-0.4-2.2-1.8-2.4 -1.4-0.2-2.9-0.1-4.3-0.5 -4.5-1.2-8.6-2.9-11.1-7 -1.4-2.3-3.8-2.4-5.8-0.4 -1.1 1.1-2.2 2.3-3.3 3.5 -2 2-2.2 3.2-0.6 5.6 1.7 2.5 2.9 5.1 2.3 8.1 -0.4 1.9-0.9 3.8-1.5 5.7 -1.4 4.7 0 7.6 4.5 9.9 1.7 0.9 3.5 2.1 4.6 3.6 1.8 2.3 3.9 3.9 6.9 4.7 2.6 0.6 4.5 2 5.2 4.6 0.5 1.8 1.8 3.1 3.8 3.4 4.9 0.7 9.8 1.4 14.7 2 4.9 0.6 9.8 1 14.7 1.7 4.2 0.6 8 0.5 11.5-2.3 1.8-1.5 4-2.5 5.9-3.8 2.8-2.1 5.8-2.5 9.1-1.2 4.3 1.6 9.4-0.1 11.1-4.6 1.9-5.1 4-10.2 5.8-15.4 1.1-3.3 2.5-6.4 4.9-9.2 1.3-1.5 2.3-3.4 2.6-5.2 1-6.4 1.9-12.8 2.3-19.2C692.8 141.9 692.3 137.3 691.8 132.8"></path><path d="M663.5 237c-2.8-4.8-7.1-5.9-12.5-5 -1.3 0.2-2.7 0.2-4.1 0.1 -2.7-0.2-3.8 0.4-4.3 2.9 -0.6 2.9-2.3 4.8-5.2 5.9 -0.7 0.3-1.3 0.7-2 0.9 -5.8 2.4-10.2 6.4-14 10.9 -3.5 4.2-6.6 8.7-9.8 13.1 -1.4 1.8-3 3.4-5.4 3.6 -2.8 0.3-5.8 0.5-8.5 0 -8.1-1.7-16.2-3.6-24.2-5.7 -3.3-0.8-6.1-0.6-8.9 1.2 -5.5 3.6-9.5 8.2-12 14.1 -2 4.6-4.3 9.1-5.1 14.1 -0.5 3.5 1.2 6.2 4.7 6.3 3.9 0.1 7.8 0.1 11.7 0.2 3.2 0 6.2 0.6 8.8 2.5 3.7 2.6 8.1 3.6 12.5 2.7 4.6-0.9 8.8-0.2 13 1.6 2.6 1.2 3.6 2.6 3.1 4.7 -0.2 0.9-0.7 1.6-1.1 2.4 -1.4 2.8-0.9 4.5 2.2 5.4 3.2 1 6.5 1.5 9.8 2.2 3.3-0.1 6.2-1.3 8.8-2.9 4-2.6 8.1-5.1 11.6-8.1 6.2-5.2 12.4-10.4 17.8-16.2 7.4-8 13.8-16.8 18.7-26.5 3.1-6.2 3.6-12.5 1.2-18.7C668.7 244.5 665.7 240.9 663.5 237"></path><path d="M553.1 305.1c-2.5 2.1-5.1 3.7-8.1 5.1 -3 1.5-3 4.3 0 5.8 3.3 1.7 6.8 3 10.3 4.2 2.9 1 5.1-0.1 6.1-2.8 0.8-2 1.1-4.2 1.5-6.2 -0.2-1-0.3-1.8-0.5-2.5C561.5 305.7 556.6 302.1 553.1 305.1"></path><path d="M648.7 223.5c2.8 3.5 9.1 4.8 11.1 5.4 0.5-0.3 3.8-2.4 3.9-2.8 0.2-0.4 0-1.3-0.4-1.6 -0.8-0.7-1.8-1.3-2.8-1.7 -2.4-1-5-1.7-6.7-3.8 -0.9-1.1-1.5-2.3-2.5-3.3 -0.4-0.4-1.7-0.7-2-0.4 -0.5 0.4-0.8 1.5-0.6 2C649.4 218.6 647.8 222.3 648.7 223.5"></path><path d="M134.6 512.6c1 1 1.6 2.3 1.6 3.9v70.9c0 1.5-0.5 2.8-1.6 3.9 -1.1 1-2.4 1.6-3.8 1.6 -1.5 0-2.8-0.5-3.9-1.6 -1-1-1.6-2.3-1.6-3.9V535.4l-25.3 51.6c-1.2 1.8-2.8 2.7-4.7 2.7 -2.3 0-4-1.1-5-3.2l-25-50.1v51.1c0 1.5-0.5 2.8-1.6 3.9 -1 1-2.3 1.6-3.9 1.6 -1.5 0-2.8-0.5-3.9-1.6 -1-1-1.6-2.3-1.6-3.9v-70.9c0-1.5 0.5-2.8 1.6-3.9 1-1 2.3-1.6 3.9-1.6 2.1 0 3.7 1 4.8 2.9l31.1 62.3 30.2-62.3c1.1-2 2.7-2.9 4.8-2.9C132.2 511.1 133.5 511.6 134.6 512.6z"></path><path d="M218.7 587.5c0 1.5-0.5 2.7-1.6 3.8 -1 1-2.3 1.6-3.9 1.6 -1 0-2-0.3-3-0.9 -0.9-0.6-1.6-1.4-2-2.5l-5.9-14.7h-37.6l-6 14.7c-0.5 1-1.2 1.9-2.1 2.5 -0.9 0.6-1.9 0.9-2.9 0.9 -1.5 0-2.8-0.5-3.8-1.6 -1-1.1-1.5-2.4-1.5-3.8 0-0.7 0.2-1.5 0.5-2.4l29.4-70.2c1-2.4 2.8-3.7 5.1-3.7 2.5 0 4.2 1.2 5.1 3.7l29.5 70.4C218.5 586.1 218.7 586.9 218.7 587.5zM198.7 565.8l-15-37.3 -15.3 37.3H198.7z"></path><path d="M310.9 512.6c1 1 1.6 2.3 1.6 3.9v70.9c0 1.5-0.5 2.8-1.6 3.9 -1.1 1-2.4 1.6-3.8 1.6 -1.5 0-2.8-0.5-3.9-1.6 -1-1-1.6-2.3-1.6-3.9V535.4l-25.3 51.6c-1.2 1.8-2.8 2.7-4.7 2.7 -2.3 0-4-1.1-5-3.2l-25-50.1v51.1c0 1.5-0.5 2.8-1.6 3.9 -1 1-2.3 1.6-3.9 1.6 -1.5 0-2.8-0.5-3.9-1.6 -1-1-1.6-2.3-1.6-3.9v-70.9c0-1.5 0.5-2.8 1.6-3.9 1-1 2.3-1.6 3.9-1.6 2.1 0 3.7 1 4.8 2.9l31.1 62.3 30.2-62.3c1.1-2 2.7-2.9 4.8-2.9C308.6 511.1 309.9 511.6 310.9 512.6z"></path><path d="M413.7 512.6c1 1 1.6 2.3 1.6 3.9v70.9c0 1.5-0.5 2.8-1.6 3.9 -1.1 1-2.4 1.6-3.8 1.6 -1.5 0-2.8-0.5-3.9-1.6 -1-1-1.6-2.3-1.6-3.9V535.4l-25.3 51.6c-1.2 1.8-2.8 2.7-4.7 2.7 -2.3 0-4-1.1-5-3.2l-25-50.1v51.1c0 1.5-0.5 2.8-1.6 3.9 -1 1-2.3 1.6-3.9 1.6 -1.5 0-2.8-0.5-3.9-1.6 -1-1-1.6-2.3-1.6-3.9v-70.9c0-1.5 0.5-2.8 1.6-3.9 1-1 2.3-1.6 3.9-1.6 2.1 0 3.7 1 4.8 2.9l31.1 62.3 30.2-62.3c1.1-2 2.7-2.9 4.8-2.9C411.4 511.1 412.6 511.6 413.7 512.6z"></path><path d="M495.5 515.4c6.3 3.6 11.2 8.5 14.8 14.9 3.5 6.4 5.3 13.6 5.3 21.7 0 8.1-1.8 15.3-5.3 21.7 -3.5 6.4-8.4 11.4-14.7 14.9s-13.5 5.3-21.6 5.3c-8.1 0-15.3-1.8-21.6-5.3 -6.3-3.6-11.2-8.5-14.7-14.9 -3.5-6.4-5.2-13.6-5.2-21.7 0-8.1 1.7-15.3 5.2-21.7 3.5-6.3 8.4-11.3 14.7-14.9 6.3-3.6 13.5-5.3 21.6-5.3C482 510 489.2 511.8 495.5 515.4zM457.9 524.1c-4.7 2.8-8.4 6.6-11 11.5 -2.7 4.9-4 10.3-4 16.3 0 6 1.3 11.4 4 16.3 2.7 4.9 6.3 8.7 11.1 11.6 4.7 2.8 10.1 4.2 16 4.2 5.9 0 11.3-1.4 16-4.2 4.7-2.8 8.4-6.7 11.1-11.6 2.7-4.9 4-10.3 4-16.3 0-6-1.3-11.4-4-16.3 -2.7-4.9-6.3-8.7-11-11.5 -4.7-2.8-10.1-4.2-16.1-4.2C468 519.9 462.6 521.3 457.9 524.1z"></path><path d="M582 512.5c0.9 0.9 1.4 2.1 1.4 3.6 0 1.5-0.5 2.7-1.4 3.6 -0.9 0.9-2.1 1.4-3.6 1.4h-22.5v66.3c0 1.5-0.5 2.8-1.6 3.9 -1 1-2.3 1.6-3.9 1.6 -1.5 0-2.8-0.5-3.9-1.6 -1-1-1.6-2.3-1.6-3.9v-66.3H522.4c-1.5 0-2.7-0.5-3.6-1.4 -0.9-0.9-1.4-2.1-1.4-3.6 0-1.5 0.5-2.7 1.4-3.6 0.9-0.9 2.1-1.4 3.6-1.4h56C579.9 511.1 581.1 511.5 582 512.5z"></path><path d="M656.5 512.6c1-1 2.3-1.5 3.9-1.5 1.5 0 2.8 0.5 3.8 1.5 1 1 1.5 2.3 1.5 3.9v70.9c0 1.6-0.5 2.9-1.5 3.9 -1 1-2.3 1.5-3.8 1.5 -1.5 0-2.8-0.5-3.9-1.6 -1-1-1.6-2.3-1.6-3.9v-31.2h-48.6v31.2c0 1.5-0.5 2.8-1.5 3.9 -1 1-2.3 1.6-3.9 1.6 -1.5 0-2.8-0.5-3.9-1.6 -1-1-1.6-2.3-1.6-3.9v-70.9c0-1.6 0.5-2.9 1.6-3.9 1-1 2.3-1.5 3.9-1.5 1.6 0 2.9 0.5 3.9 1.5 1 1 1.5 2.3 1.5 3.9v30h48.6v-30C654.9 514.9 655.5 513.6 656.5 512.6z"></path><path d="M215.2 641.7c0.4 0.4 0.6 0.8 0.6 1.4v12.6c0 0.6-0.2 1.1-0.6 1.4 -3.2 2.9-7.3 4.4-12.5 4.4 -3.6 0-6.9-0.9-9.9-2.7 -3-1.8-5.4-4.3-7.2-7.4 -1.8-3.1-2.7-6.5-2.7-10.2 0-3.7 0.9-7.1 2.6-10.2 1.8-3.1 4.2-5.6 7.2-7.4 3-1.8 6.3-2.7 10-2.7 2.4 0 4.7 0.4 6.7 1.1 2 0.7 3.9 1.9 5.8 3.4 0.4 0.3 0.6 0.7 0.6 1.2 0 0.3-0.1 0.5-0.2 0.7 -0.1 0.2-0.3 0.4-0.6 0.5 -0.1 0.2-0.2 0.4-0.5 0.6 -0.2 0.2-0.5 0.2-0.8 0.2 -0.5 0-0.9-0.2-1.3-0.5 -1.3-1.2-2.8-2.1-4.3-2.6 -1.6-0.5-3.4-0.8-5.4-0.8 -2.9 0-5.5 0.8-7.9 2.3 -2.4 1.5-4.4 3.5-5.8 6.1 -1.4 2.5-2.2 5.3-2.2 8.2 0 3 0.7 5.8 2.1 8.4 1.4 2.5 3.4 4.6 5.8 6.1 2.4 1.5 5.1 2.2 8 2.2 3.3 0 6.3-1 9.2-2.9v-10.2h-7.9c-0.6 0-1.1-0.2-1.4-0.5 -0.4-0.3-0.6-0.8-0.6-1.3 0-0.5 0.2-0.9 0.6-1.2 0.4-0.3 0.8-0.5 1.4-0.5h9.8C214.4 641.2 214.9 641.4 215.2 641.7z"></path><path d="M254.6 657.8c0.4 0.4 0.6 0.8 0.6 1.4s-0.2 1-0.6 1.4c-0.4 0.4-0.8 0.6-1.4 0.6h-23.9c-0.5 0-1-0.2-1.4-0.6 -0.4-0.4-0.6-0.9-0.6-1.4v-35.8c0-0.6 0.2-1.1 0.6-1.4 0.4-0.4 0.9-0.6 1.4-0.6h23.9c0.6 0 1.1 0.2 1.4 0.6 0.4 0.4 0.6 0.8 0.6 1.4s-0.2 1-0.6 1.4c-0.4 0.4-0.8 0.5-1.4 0.5h-21.9v14.1h15.9c0.6 0 1.1 0.2 1.4 0.6 0.4 0.4 0.6 0.8 0.6 1.4 0 0.5-0.2 1-0.6 1.4 -0.4 0.4-0.9 0.6-1.4 0.6h-15.9v14.2h21.9C253.8 657.2 254.2 657.4 254.6 657.8z"></path><path d="M294.5 623.4c3.1 1.8 5.5 4.2 7.3 7.3 1.7 3.1 2.6 6.6 2.6 10.4 0 3.9-0.9 7.4-2.6 10.5 -1.7 3.1-4.2 5.5-7.3 7.3 -3.1 1.8-6.6 2.6-10.4 2.6 -3.9 0-7.3-0.9-10.4-2.6 -3.1-1.8-5.5-4.2-7.3-7.3 -1.7-3.1-2.6-6.6-2.6-10.5 0-3.9 0.9-7.3 2.6-10.4 1.7-3.1 4.2-5.5 7.3-7.3 3.1-1.8 6.6-2.6 10.4-2.6C287.9 620.8 291.4 621.7 294.5 623.4zM275.7 626.7c-2.5 1.5-4.5 3.5-5.9 6 -1.4 2.5-2.1 5.3-2.1 8.4 0 3.1 0.7 5.9 2.1 8.5 1.4 2.5 3.4 4.5 5.9 6 2.5 1.5 5.3 2.2 8.4 2.2 3.1 0 5.9-0.7 8.4-2.2 2.5-1.5 4.5-3.5 5.9-6 1.4-2.5 2.1-5.4 2.1-8.5 0-3.1-0.7-5.9-2.1-8.4 -1.4-2.5-3.4-4.5-5.9-6 -2.5-1.5-5.3-2.2-8.4-2.2C281 624.6 278.2 625.3 275.7 626.7z"></path><path d="M335.1 622.6c2 1.2 3.6 2.7 4.8 4.6 0.2 0.4 0.4 0.8 0.4 1.2 0 0.6-0.3 1.2-0.9 1.5 -0.3 0.1-0.6 0.2-0.9 0.2 -0.4 0-0.7-0.1-1-0.3 -0.3-0.2-0.6-0.4-0.8-0.8 -1.9-3-4.8-4.5-8.6-4.5 -2.7 0-4.9 0.6-6.5 1.7 -1.6 1.2-2.4 2.8-2.4 4.9 0 4 3.2 6.4 9.6 7.2 4.2 0.6 7.3 1.9 9.4 3.9 2.1 2 3.1 4.6 3.1 7.8 0 2.4-0.6 4.4-1.7 6.2 -1.2 1.7-2.7 3-4.7 3.9 -2 0.9-4.2 1.3-6.7 1.3 -3.2 0-6.1-0.7-8.6-2.1s-4.3-3.2-5.4-5.6c-0.1-0.2-0.2-0.5-0.2-0.8 0-0.5 0.2-0.9 0.5-1.2 0.4-0.3 0.8-0.5 1.5-0.5 0.4 0 0.8 0.1 1.1 0.3 0.4 0.2 0.6 0.5 0.8 0.9 0.8 1.5 2.1 2.8 3.9 3.7 1.8 0.9 3.9 1.4 6.3 1.4 2.8 0 5-0.7 6.7-2 1.7-1.3 2.5-3.2 2.5-5.6 0-2.1-0.8-3.9-2.4-5.4 -1.6-1.5-3.9-2.4-7.1-2.8 -3.9-0.5-7-1.7-9.3-3.7 -2.3-2-3.4-4.4-3.4-7.3 0-2 0.6-3.8 1.7-5.4 1.1-1.5 2.6-2.7 4.6-3.6 2-0.8 4.2-1.2 6.6-1.2C330.7 620.8 333 621.4 335.1 622.6z"></path><path d="M356 660.5c-0.4 0.4-0.8 0.6-1.4 0.6 -0.6 0-1.1-0.2-1.4-0.6 -0.4-0.4-0.6-0.8-0.6-1.4v-35.8c0-0.6 0.2-1.1 0.6-1.4 0.4-0.4 0.8-0.6 1.4-0.6h10.2c2.5 0 4.7 0.6 6.6 1.7 2 1.1 3.5 2.6 4.6 4.6 1.1 2 1.6 4.2 1.6 6.7 0 2.5-0.5 4.7-1.6 6.6 -1.1 1.9-2.6 3.4-4.6 4.5 -2 1.1-4.2 1.6-6.6 1.6h-8.2v12.1C356.6 659.7 356.4 660.1 356 660.5zM369.4 642c1.4-0.8 2.4-1.8 3.2-3.2 0.8-1.4 1.1-2.9 1.1-4.6 0-1.8-0.4-3.3-1.1-4.7s-1.8-2.5-3.2-3.2c-1.4-0.8-2.9-1.2-4.6-1.2h-8.2v18.1h8.2C366.5 643.2 368.1 642.8 369.4 642z"></path><path d="M415.5 659.1c0 0.5-0.2 1-0.6 1.4 -0.4 0.4-0.9 0.6-1.4 0.6 -0.9 0-1.5-0.4-1.9-1.2l-3.4-8.2h-19.7l-3.4 8.2c-0.3 0.8-0.9 1.2-1.8 1.2 -0.6 0-1-0.2-1.4-0.6 -0.4-0.4-0.5-0.9-0.5-1.4 0-0.3 0.1-0.6 0.2-0.9l15-35.5c0.4-0.9 1-1.4 1.9-1.4 0.9 0 1.5 0.5 1.9 1.4l15 35.6C415.4 658.5 415.5 658.8 415.5 659.1zM406.8 648.2l-8.5-20.4 -8.5 20.4H406.8z"></path><path d="M447.3 621.8c0.3 0.3 0.5 0.8 0.5 1.3 0 0.5-0.2 0.9-0.5 1.3 -0.3 0.3-0.8 0.5-1.3 0.5h-12.1v34.2c0 0.5-0.2 1-0.6 1.4 -0.4 0.4-0.8 0.6-1.4 0.6 -0.5 0-1-0.2-1.4-0.6 -0.4-0.4-0.6-0.9-0.6-1.4v-34.2h-12.1c-0.5 0-1-0.2-1.3-0.5 -0.3-0.3-0.5-0.8-0.5-1.3 0-0.5 0.2-1 0.5-1.3 0.3-0.3 0.8-0.5 1.3-0.5h28.2C446.5 621.3 446.9 621.5 447.3 621.8z"></path><path d="M457.4 621.9c0.4-0.4 0.9-0.6 1.4-0.6 0.6 0 1.1 0.2 1.4 0.6 0.4 0.4 0.6 0.8 0.6 1.4v35.8c0 0.5-0.2 1-0.6 1.4 -0.4 0.4-0.8 0.6-1.4 0.6 -0.5 0-1-0.2-1.4-0.6 -0.4-0.4-0.6-0.9-0.6-1.4v-35.8C456.8 622.7 457 622.2 457.4 621.9z"></path><path d="M504.1 659.1c0 0.5-0.2 1-0.6 1.4 -0.4 0.4-0.9 0.6-1.4 0.6 -0.9 0-1.5-0.4-1.9-1.2l-3.4-8.2h-19.7l-3.4 8.2c-0.3 0.8-0.9 1.2-1.8 1.2 -0.6 0-1-0.2-1.4-0.6 -0.4-0.4-0.5-0.9-0.5-1.4 0-0.3 0.1-0.6 0.2-0.9l15-35.5c0.4-0.9 1-1.4 1.9-1.4 0.9 0 1.5 0.5 1.9 1.4l15 35.6C504.1 658.5 504.1 658.8 504.1 659.1zM495.5 648.2l-8.5-20.4 -8.5 20.4H495.5z"></path><path d="M538.4 657.8c0.4 0.4 0.6 0.8 0.6 1.4s-0.2 1-0.6 1.4c-0.4 0.4-0.8 0.5-1.4 0.5h-21.9c-0.5 0-1-0.2-1.4-0.6 -0.4-0.4-0.6-0.9-0.6-1.4v-35.8c0-0.5 0.2-1 0.6-1.4 0.4-0.4 0.9-0.6 1.4-0.6 0.6 0 1.1 0.2 1.4 0.6 0.4 0.4 0.6 0.8 0.6 1.4v34h19.9C537.5 657.3 538 657.5 538.4 657.8z"></path></svg>