<?xml version="1.0" encoding="UTF-8" standalone="no"?>
<!-- Created with Inkscape (http://www.inkscape.org/) -->

<svg
   xmlns:dc="http://purl.org/dc/elements/1.1/"
   xmlns:cc="http://creativecommons.org/ns#"
   xmlns:rdf="http://www.w3.org/1999/02/22-rdf-syntax-ns#"
   xmlns:svg="http://www.w3.org/2000/svg"
   xmlns="http://www.w3.org/2000/svg"
   xmlns:sodipodi="http://sodipodi.sourceforge.net/DTD/sodipodi-0.dtd"
   xmlns:inkscape="http://www.inkscape.org/namespaces/inkscape"
   width="60mm"
   height="60mm"
   viewBox="0 0 60 60"
   version="1.1"
   id="svg837"
   inkscape:version="0.92.3 (2405546, 2018-03-11)"
   sodipodi:docname="pypoole2.svg"
   inkscape:export-filename="C:\Users\Cam\Documents\OtherWork\pypoole2.png"
   inkscape:export-xdpi="96"
   inkscape:export-ydpi="96">
  <defs
     id="defs831" />
  <sodipodi:namedview
     id="base"
     pagecolor="#ffffff"
     bordercolor="#666666"
     borderopacity="1.0"
     inkscape:pageopacity="0.0"
     inkscape:pageshadow="2"
     inkscape:zoom="7.9195959"
     inkscape:cx="110.51857"
     inkscape:cy="108.90546"
     inkscape:document-units="mm"
     inkscape:current-layer="layer1"
     showgrid="true"
     inkscape:snap-grids="false"
     inkscape:snap-to-guides="false"
     fit-margin-top="0"
     fit-margin-left="0"
     fit-margin-right="0"
     fit-margin-bottom="0"
     inkscape:window-width="1920"
     inkscape:window-height="1017"
     inkscape:window-x="-8"
     inkscape:window-y="-8"
     inkscape:window-maximized="1">
    <inkscape:grid
       type="xygrid"
       id="grid4549" />
  </sodipodi:namedview>
  <metadata
     id="metadata834">
    <rdf:RDF>
      <cc:Work
         rdf:about="">
        <dc:format>image/svg+xml</dc:format>
        <dc:type
           rdf:resource="http://purl.org/dc/dcmitype/StillImage" />
        <dc:title />
      </cc:Work>
    </rdf:RDF>
  </metadata>
  <g
     inkscape:label="Layer 1"
     inkscape:groupmode="layer"
     id="layer1"
     transform="translate(-77.091074,-145.27541)">
    <g
       id="surface1"
       transform="matrix(-1.3172018,0.00141626,-0.00326061,-1.3607864,187.53714,191.25264)">
      <path
         style="fill:#08a045;fill-opacity:1"
         inkscape:connector-curvature="0"
         id="path5297"
         d="m 69.336249,0.14918473 c -1.019531,0.003906 -2.019531,0.101563 -2.875,0.25 -2.519531,0.441406 -2.96875,1.36328097 -2.96875,3.06249997 v 2.625 h 6 v 1.0625 h -8.84375 c -1.730469,0 -3.273437,1.042969 -3.75,3.0000003 -0.546875,2.242188 -0.570313,3.625 0,5.96875 0.425781,1.742188 1.457031,3 3.1875,3 h 2.375 v -3.28125 c 0,-1.945312 1.699219,-3.75 3.71875,-3.75 h 5.25 c 1.65625,0 3,-1.355469 3,-3.0000003 v -5.625 c 0,-1.597656 -1.382812,-2.79296897 -3,-3.06249997 -1.023437,-0.167969 -1.074219,-0.253906 -2.09375,-0.25 z" />
      <path
         style="fill:#fff0ff;fill-opacity:1"
         inkscape:connector-curvature="0"
         id="path5295"
         d="m 65.961249,2.4929347 c 0.613281,0 1.125,0.503906 1.125,1.125 0,0.617188 -0.511719,1.125 -1.125,1.125 -0.617187,0 -1.125,-0.507812 -1.125,-1.125 0,-0.621094 0.507813,-1.125 1.125,-1.125 z" />
      <path
         style="fill:#ffba08;fill-opacity:1"
         inkscape:connector-curvature="0"
         id="path5293"
         d="m 75.461249,6.1179347 v 3.28125 c 0,1.9453133 -1.699219,3.7500003 -3.71875,3.7500003 h -5.25 c -1.65625,0 -3,1.355469 -3,3 v 5.625 c 0,1.597656 1.382813,2.796875 3,3.0625 1.023438,0.167969 1.074219,0.257813 2.09375,0.25 1.019531,-0.0039 2.019531,-0.101562 2.875,-0.25 2.519531,-0.4375 2.96875,-1.363281 2.96875,-3.0625 v -2.625 h -6 v -1.0625 h 8.84375 c 1.730469,0 3.273438,-1.042969 3.75,-3 0.546875,-2.242187 0.570313,-3.625 0,-5.9687503 -0.425781,-1.742187 -1.457031,-3 -3.1875,-3 z" />
      <path
         style="fill:#ffffff;fill-opacity:1"
         inkscape:connector-curvature="0"
         id="path1382"
         d="m 71.961249,20.492935 c 0.617188,0 1.125,0.507813 1.125,1.125 0,0.621094 -0.507812,1.125 -1.125,1.125 -0.613281,0 -1.125,-0.503906 -1.125,-1.125 0,-0.617187 0.511719,-1.125 1.125,-1.125 z" />
    </g>
    <g
       id="flowRoot5216"
       style="font-style:normal;font-variant:normal;font-weight:normal;font-stretch:normal;font-size:40px;line-height:1.25;font-family:'Alfa Slab One';-inkscape-font-specification:'Alfa Slab One, Normal';font-variant-ligatures:normal;font-variant-caps:normal;font-variant-numeric:normal;font-feature-settings:normal;text-align:start;letter-spacing:0px;word-spacing:0px;writing-mode:lr-tb;text-anchor:start;fill:#000000;fill-opacity:1;stroke:none"
       transform="matrix(0.26438222,-0.01031407,0.01031407,0.26438222,-7.2836827,-9.0677673)"
       aria-label="oole">
      <path
         style="fill:#032b43;fill-opacity:1"
         inkscape:connector-curvature="0"
         id="path5279"
         d="m 410.50291,772.54715 q -5.67637,-0.2029 -8.7686,-3.27532 -3.09079,-3.1124 -2.88646,-8.82875 0.20433,-5.71635 3.50802,-8.56015 3.30512,-2.88377 8.9815,-2.68088 5.75632,0.20576 8.80571,3.3567 3.05082,3.11097 2.84935,8.74737 -0.20433,5.71635 -3.50945,8.60012 -3.30369,2.8438 -8.98007,2.64091 z m 0.25434,-7.11546 q 1.15926,0.0414 1.74033,-0.53818 0.62248,-0.61815 0.66964,-1.93731 l 0.14288,-3.99745 q 0.0472,-1.31916 -0.53103,-1.94021 -0.53678,-0.65959 -1.69604,-0.70103 -1.15926,-0.0414 -1.78174,0.57672 -0.58107,0.57961 -0.62823,1.89877 l -0.14288,3.99745 q -0.0472,1.31916 0.48963,1.97875 0.57818,0.62105 1.73744,0.66249 z" />
      <path
         style="fill:#032b43;fill-opacity:1"
         inkscape:connector-curvature="0"
         id="path5281"
         d="m 438.03307,773.13919 q -5.67576,-0.21932 -8.75908,-3.30068 -3.08178,-3.12132 -2.86091,-8.83705 0.22086,-5.71573 3.53276,-8.54997 3.31345,-2.8742 8.98922,-2.65488 5.7557,0.22241 8.79596,3.38215 3.04181,3.11978 2.82404,8.75557 -0.22086,5.71574 -3.53431,8.58994 -3.31191,2.83424 -8.98768,2.61492 z m 0.27493,-7.1147 q 1.15913,0.0448 1.74188,-0.53313 0.62427,-0.61635 0.67524,-1.93537 l 0.15444,-3.99702 q 0.0509,-1.31902 -0.52542,-1.94174 -0.53487,-0.66115 -1.694,-0.70593 -1.15914,-0.0448 -1.7834,0.57157 -0.58275,0.57792 -0.63372,1.89694 l -0.15445,3.99701 q -0.0509,1.31902 0.48391,1.98017 0.57638,0.62271 1.73552,0.6675 z" />
      <path
         style="fill:#032b43;fill-opacity:1"
         inkscape:connector-curvature="0"
         id="path5283"
         d="m 454.66282,773.30622 0.19904,-6.59701 1.7592,0.0531 0.54285,-17.99182 -1.7592,-0.0531 0.19783,-6.55702 10.95502,0.33053 -0.74068,24.54884 1.7592,0.0531 -0.19905,6.59699 z" />
      <path
         style="opacity:1;fill:#032b43;fill-opacity:1"
         inkscape:connector-curvature="0"
         id="path5285"
         d="m 484.09032,774.44246 q -5.67551,-0.22565 -8.75539,-3.31043 -3.0783,-3.12476 -2.85106,-8.84025 0.22724,-5.71548 3.5423,-8.54602 3.31666,-2.8705 8.99217,-2.64486 5.63555,0.22406 7.996,3.28025 2.40201,3.01781 2.2288,7.37436 l -0.11441,2.87773 -12.94977,-0.51486 -0.01,0.23981 q -0.0588,1.47883 0.79191,2.23322 0.85229,0.71443 2.89068,0.79547 2.43807,0.0969 4.65064,-0.17538 2.21256,-0.27232 3.87352,-0.76673 l -0.25426,6.39495 q -1.42908,0.70378 -4.17236,1.23522 -2.70172,0.49306 -5.85923,0.36752 z m 2.89977,-14.53627 0.0191,-0.47962 q 0.054,-1.35893 -0.52166,-1.98229 -0.53572,-0.62178 -1.69481,-0.66786 -1.15908,-0.0461 -1.78403,0.56958 -0.5834,0.57728 -0.63583,1.89623 l -0.0191,0.47962 z" />
    </g>
    <g
       id="flowRoot5224"
       style="font-style:normal;font-variant:normal;font-weight:normal;font-stretch:normal;font-size:40px;line-height:1.25;font-family:'Alfa Slab One';-inkscape-font-specification:'Alfa Slab One, Normal';font-variant-ligatures:normal;font-variant-caps:normal;font-variant-numeric:normal;font-feature-settings:normal;text-align:start;letter-spacing:0px;word-spacing:0px;writing-mode:lr-tb;text-anchor:start;fill:#000000;fill-opacity:1;stroke:none"
       transform="matrix(0.26457729,-0.00178827,0.00178827,0.26457729,1.5374862,-9.3567161)"
       aria-label="y">
      <path
         style="fill:#032b43;fill-opacity:1"
         inkscape:connector-curvature="0"
         id="path5288"
         d="m 445.02266,694.1123 v 6.56 h -1.52 l -5.24,13.88 q -1.96,5.24 -4.48,7.84 -2.52,2.64 -6.64,2.64 -1.68,0 -3.4,-0.36 -1.72,-0.32 -3.12,-0.92 v -7.24 h 5.52 v 0.4 q 0,1 1.04,1 0.92,0 1.4,-0.88 l -6.32,-16.36 h -1.52 v -6.56 h 11.88 v 6.56 h -1.36 l 2.08,6.24 1.92,-6.24 h -1.36 v -6.56 z" />
    </g>
  </g>
</svg>
